<svg t="1679556732162" class="icon" viewBox="0 0 1024 1024" version="1.1" xmlns="http://www.w3.org/2000/svg" p-id="5222" width="200" height="200"><path d="M791.2 485.248H738.24v-191.68a31.136 31.136 0 0 0-7.232-19.904 26.848 26.848 0 0 0-19.264-7.488h-166.08v-31.104C546.848 177.792 502.336 129.28 445.76 128c-55.36-1.28-102.304 44.8-103.52 103.296v34.88H154.464a28.96 28.96 0 0 0-19.232 7.456c-4.8 4.96-7.232 12.448-7.232 19.904v201.632h54.176c54.144 2.496 97.472 48.544 97.472 104.576 0 56-43.328 103.296-97.472 104.544H128v164.288c0 7.488 2.4 13.696 7.232 19.936 4.8 4.96 12.032 7.456 19.232 7.456h176.96v-52.288c0-58.496 45.728-104.544 101.12-104.544 55.36 0 101.088 47.296 101.088 104.544V896h176.928a28.96 28.96 0 0 0 19.264-7.456c4.8-4.992 7.2-12.48 7.2-19.936V704.32h52.96c58.976 0 105.92-48.544 105.92-109.536a104.704 104.704 0 0 0-104.704-109.536z" fill="#ffffff" p-id="5223"></path></svg>
