<svg t="1683187706843" class="icon" viewBox="0 0 1024 1024" version="1.1" xmlns="http://www.w3.org/2000/svg" p-id="4351" width="200" height="200"><path d="M725.333333 896v85.333333h-85.333333v-85.333333h85.333333z m85.333334 0h85.333333a85.333333 85.333333 0 0 1-85.333333 85.333333v-85.333333z m-256 0v85.333333h-85.333334v-85.333333h85.333334z m-170.666667 0v85.333333H298.666667v-85.333333h85.333333z m-170.666667 0v85.333333a85.333333 85.333333 0 0 1-85.333333-85.333333h85.333333z m597.333334-341.333333h85.333333v85.333333h-85.333333v-85.333333z m0-85.333334V384h-170.666667a85.333333 85.333333 0 0 1-85.333333-85.333333V128H213.333333v341.333333H128V128a85.333333 85.333333 0 0 1 85.333333-85.333333h444.330667L896 281.002667V469.333333h-85.333333zM213.333333 554.666667v85.333333H128v-85.333333h85.333333z m597.333334 170.666666h85.333333v85.333334h-85.333333v-85.333334zM213.333333 725.333333v85.333334H128v-85.333334h85.333333zM640 145.664V298.666667h153.002667L640 145.664z" p-id="4352"></path></svg>
