<svg t="1679034462564" class="icon" viewBox="0 0 1024 1024" version="1.1" xmlns="http://www.w3.org/2000/svg" p-id="16680" width="200" height="200"><path d="M224 1017.6c-51.2 0-160-32-160-140.8V192c0-128 83.2-192 160-192h556.8c96 0 160 64 160 166.4v230.4c0 19.2-12.8 44.8-38.4 44.8-32-6.4-44.8-19.2-44.8-44.8V179.2c0-70.4-64-96-89.6-96H230.4c-38.4 0-83.2 38.4-89.6 121.6v640c0 96 64 96 89.6 96h192c25.6-6.4 38.4 19.2 38.4 38.4s-12.8 38.4-38.4 38.4H224z" p-id="16681"></path><path d="M281.6 172.8h435.2c19.2 0 32 12.8 32 32s-12.8 32-32 32H281.6c-19.2 0-32-12.8-32-32s12.8-32 32-32zM281.6 358.4h435.2c19.2 0 32 12.8 32 32s-12.8 32-32 32H281.6c-19.2 0-32-12.8-32-32 0-12.8 12.8-32 32-32zM281.6 550.4h185.6c19.2 0 32 12.8 32 32s-12.8 32-32 32H281.6c-19.2 0-32-12.8-32-32s12.8-32 32-32zM896 768h-96v-96c0-6.4-6.4-12.8-12.8-12.8h-25.6c-6.4 0-12.8 6.4-12.8 12.8v134.4c0 6.4 6.4 12.8 12.8 12.8H896c6.4 0 12.8-6.4 12.8-12.8v-25.6c-6.4-12.8-6.4-12.8-12.8-12.8z" p-id="16682"></path><path d="M780.8 1017.6c-134.4 0-236.8-108.8-236.8-236.8s108.8-236.8 236.8-236.8 236.8 108.8 236.8 236.8-108.8 236.8-236.8 236.8z m0-409.6c-96 0-172.8 76.8-172.8 172.8s76.8 172.8 172.8 172.8 172.8-76.8 172.8-172.8-76.8-172.8-172.8-172.8z" p-id="16683"></path></svg>
