<svg t="1680772788314" class="icon" viewBox="0 0 1024 1024" version="1.1" xmlns="http://www.w3.org/2000/svg" p-id="6691" width="200" height="200"><path d="M963.656584 292.572056L728.137257 56.321302A189.439459 189.439459 0 0 0 593.554784 0.001463H233.692955A201.142282 201.142282 0 0 0 31.819246 201.875172v620.249656A201.142282 201.142282 0 0 0 233.692955 1023.998537h556.615553a201.142282 201.142282 0 0 0 201.142282-201.873709V360.594718a95.085443 95.085443 0 0 0-27.794206-68.022662z m-22.674221 498.83286A163.108105 163.108105 0 0 1 763.245728 972.067257H262.950014A164.570958 164.570958 0 0 1 83.0191 791.404916V232.595084A167.496664 167.496664 0 0 1 262.950014 51.201317h321.827652a170.42237 170.42237 0 0 1 120.68537 50.468427l210.650827 212.845106a92.159737 92.159737 0 0 1 24.8685 61.439824z" fill="" p-id="6692"></path><path d="M297.327059 438.857352v212.11368a117.759664 117.759664 0 0 1-22.674221 80.456912 102.399707 102.399707 0 0 1-78.99406 27.794207 93.62259 93.62259 0 0 1-73.142648-26.331354 100.205428 100.205428 0 0 1-24.8685-73.142648v-7.314265h51.199853v9.508545c0 35.839898 15.359956 54.12556 46.811295 54.125559a43.885589 43.885589 0 0 0 37.302751-15.359956 78.99406 78.99406 0 0 0 12.43425-49.005574V438.857352zM505.783606 438.857352l119.953943 313.050534h-54.856986L543.817783 676.570958H411.42959l-28.525633 78.262634h-54.856986L448.000914 438.857352z m21.211368 192.365165L477.9894 497.37147l-51.199854 136.776752zM796.15992 438.857352a125.073928 125.073928 0 0 1 73.142648 21.211368 85.576898 85.576898 0 0 1 29.257059 68.754089 73.142648 73.142648 0 0 1-13.165677 43.154162 68.754089 68.754089 0 0 1-40.228456 27.794207 57.051266 57.051266 0 0 1 46.079868 54.856986l5.119986 50.468427a78.262634 78.262634 0 0 0 19.017088 46.079868h-55.588413a84.114045 84.114045 0 0 1-13.897103-40.959882l-3.657132-38.034178a52.662707 52.662707 0 0 0-16.091383-37.30275 58.514119 58.514119 0 0 0-40.228456-10.971397H707.657315v127.268207h-51.199853V438.857352zM707.657315 585.142648h81.18834a73.142648 73.142648 0 0 0 47.542721-14.628529 47.542721 47.542721 0 0 0 14.62853-36.571325 43.885589 43.885589 0 0 0-14.62853-36.571324 73.142648 73.142648 0 0 0-46.079868-11.702823H707.657315zM921.233848 315.246276H763.245728a122.148222 122.148222 0 0 1-118.49109-121.416796V43.887052a25.599927 25.599927 0 0 1 51.199854 0v149.942428a73.142648 73.142648 0 0 0 73.142648 73.142649h155.062414a25.599927 25.599927 0 1 1 0 51.199853z" fill="" p-id="6693"></path></svg>
