<svg t="1690816583654" class="icon" viewBox="0 0 1024 1024" version="1.1" xmlns="http://www.w3.org/2000/svg" p-id="9183" width="200" height="200"><path d="M128 810.666667c-8.533333 0-12.8 0-21.333333-4.266667C93.866667 797.866667 85.333333 785.066667 85.333333 768L85.333333 256c0-17.066667 8.533333-29.866667 21.333333-38.4 12.8-8.533333 29.866667-8.533333 42.666667 0l384 256c12.8 8.533333 17.066667 21.333333 17.066667 34.133333s-8.533333 25.6-17.066667 34.133333l-384 256C145.066667 806.4 136.533333 810.666667 128 810.666667zM170.666667 337.066667l0 354.133333 264.533333-174.933333L170.666667 337.066667z" p-id="9184"></path><path d="M512 810.666667c-8.533333 0-12.8 0-21.333333-4.266667C477.866667 797.866667 469.333333 785.066667 469.333333 768L469.333333 256c0-17.066667 8.533333-29.866667 21.333333-38.4 12.8-8.533333 29.866667-8.533333 42.666667 0l384 256c12.8 8.533333 17.066667 21.333333 17.066667 34.133333s-8.533333 25.6-17.066667 34.133333l-384 256C529.066667 806.4 520.533333 810.666667 512 810.666667zM554.666667 337.066667l0 354.133333 264.533333-174.933333L554.666667 337.066667z" p-id="9185"></path></svg>
