<svg t="1683942752026" class="icon" viewBox="0 0 1024 1024" version="1.1" xmlns="http://www.w3.org/2000/svg" p-id="13365" width="200" height="200"><path d="M438.857143 950.857143c21.942857 0 36.571429 14.628571 36.571428 36.571428s-14.628571 36.571429-36.571428 36.571429H109.714286C51.2 1024 0 972.8 0 914.285714v-804.571428C0 51.2 51.2 0 109.714286 0h658.285714c58.514286 0 109.714286 51.2 109.714286 109.714286V365.714286c0 21.942857-14.628571 36.571429-36.571429 36.571428S804.571429 387.657143 804.571429 365.714286V109.714286c0-21.942857-14.628571-36.571429-36.571429-36.571429h-658.285714c-21.942857 0-36.571429 14.628571-36.571429 36.571429v804.571428c0 21.942857 14.628571 36.571429 36.571429 36.571429H438.857143zM256 219.428571h365.714286c21.942857 0 36.571429 14.628571 36.571428 36.571429s-14.628571 36.571429-36.571428 36.571429h-365.714286c-21.942857 0-36.571429-14.628571-36.571429-36.571429s14.628571-36.571429 36.571429-36.571429z m0 219.428572h146.285714c21.942857 0 36.571429 14.628571 36.571429 36.571428s-14.628571 36.571429-36.571429 36.571429h-146.285714c-21.942857 0-36.571429-14.628571-36.571429-36.571429s14.628571-36.571429 36.571429-36.571428z m475.428571 512c124.342857 0 219.428571-95.085714 219.428572-219.428572s-95.085714-219.428571-219.428572-219.428571-219.428571 95.085714-219.428571 219.428571 95.085714 219.428571 219.428571 219.428572z m0 73.142857c-160.914286 0-292.571429-131.657143-292.571428-292.571429s131.657143-292.571429 292.571428-292.571428 292.571429 131.657143 292.571429 292.571428-131.657143 292.571429-292.571429 292.571429z m-36.571428-336.457143v87.771429l73.142857-43.885715-73.142857-43.885714z m-7.314286 175.542857c-21.942857 14.628571-51.2 7.314286-58.514286-14.628571-7.314286-7.314286-7.314286-14.628571-7.314285-21.942857V636.342857c0-21.942857 21.942857-43.885714 43.885714-43.885714 7.314286 0 14.628571 0 21.942857 7.314286l160.914286 95.085714c21.942857 14.628571 29.257143 36.571429 14.628571 58.514286-7.314286 7.314286-7.314286 14.628571-14.628571 14.628571l-160.914286 95.085714z" p-id="13366"></path></svg>
