<svg t="1680356785785" class="icon" viewBox="0 0 1024 1024" version="1.1" xmlns="http://www.w3.org/2000/svg" p-id="14676" width="200" height="200"><path d="M795.02336 141.85472a25.6 25.6 0 0 0-35.15392-8.6528L213.35552 463.81568a56.32 56.32 0 0 0-19.03616 19.03616c-16.1024 26.61376-7.5776 61.24032 19.03616 77.34272l546.51392 330.60864a25.6 25.6 0 0 0 38.85056-21.90336V155.10528a25.6 25.6 0 0 0-3.69664-13.25056zM849.92 868.89984c0 42.4192-34.38592 76.8-76.8 76.8a76.8 76.8 0 0 1-39.75168-11.0848L186.8544 604.00128c-50.81088-30.73536-67.08224-96.8448-36.34688-147.65056a107.52 107.52 0 0 1 36.34688-36.34176l546.5088-330.61376c36.3008-21.95456 83.51232-10.33216 105.472 25.9584A76.8 76.8 0 0 1 849.92 155.10528v713.79456z" fill="#000000" p-id="14677"></path></svg>
