<svg t="1680772732846" class="icon" viewBox="0 0 1024 1024" version="1.1" xmlns="http://www.w3.org/2000/svg" p-id="5438" width="200" height="200"><path d="M918.528 263.338667l-387.797333-215.808a38.485333 38.485333 0 0 0-37.461334 0L105.472 263.338667A39.424 39.424 0 0 0 85.333333 297.813333v428.373334c0 14.336 7.68 27.562667 20.138667 34.474666l387.797333 215.808a38.485333 38.485333 0 0 0 37.461334 0l387.797333-215.808A39.424 39.424 0 0 0 938.666667 726.186667V297.813333a39.424 39.424 0 0 0-20.138667-34.474666zM512 134.826667l291.712 162.304L512 442.965333 220.288 297.088 512 134.826667z m-341.333333 564.48V367.701333l298.666666 149.333334v348.458666l-298.666666-166.229333z m384 166.229333v-348.458667l298.666666-149.333333v331.562667l-298.666666 166.229333z" fill="#000000" p-id="5439"></path></svg>
