<svg t="1683446486693" class="icon" viewBox="0 0 1024 1024" version="1.1" xmlns="http://www.w3.org/2000/svg" p-id="4162" width="200" height="200"><path d="M561.77066667 817.46133333L413.29493333 928.9344a48.49813333 48.49813333 0 0 1-29.11893333 9.71413333c-26.784 0-48.49706667-21.71306667-48.49706667-48.49813333V704.29653333L91.87733333 582.26666667c-23.952-11.98826667-33.65013333-41.1232-21.66186666-65.0752a48.49813333 48.49813333 0 0 1 20.65813333-21.14453334l761.7952-403.728c23.66613333-12.54293333 53.01866667-3.52533333 65.5616 20.1408a48.49813333 48.49813333 0 0 1 4.81706667 31.63946667l-134.43413334 717.73866667c-4.9312 26.3264-30.27093333 43.67146667-56.59733333 38.74026666a48.49813333 48.49813333 0 0 1-12.77866667-4.29973333L561.7696 817.46133333z m-46.92586667-23.488L382.61333333 727.78986667v162.3616c0 0.864 0.69973333 1.5648 1.56373334 1.5648 0.20373333 0 43.76-32.58026667 130.66773333-97.7408z m312.8832-635.32053333L112.85226667 537.51573333c-1.05386667 1.45493333-0.74133333 2.39466667 0.032 2.78186667l241.16053333 120.7072 473.6832-502.352z m39.97013333 26.02346667L397.8688 682.93973333l171.50186667 85.84213334c0.29546667 0.13973333 0.5888 0.28693333 0.87893333 0.43946666l169.99466667 85.08693334c1.2608 0.29866667 2.07893333-0.26133333 2.23786666-1.11146667l125.216-668.52053333z" p-id="4163"></path></svg>
