<svg t="1682230775379" class="icon" viewBox="0 0 1024 1024" version="1.1" xmlns="http://www.w3.org/2000/svg" p-id="2962" width="200" height="200"><path d="M368.64 570.026667C347.306667 560.213333 323.84 554.666667 298.666667 554.666667c-94.293333 0-170.666667 76.373333-170.666667 170.666666s76.373333 170.666667 170.666667 170.666667 170.666667-76.373333 170.666666-170.666667c0-25.173333-5.546667-48.64-15.36-69.973333L512 597.333333l58.026667 58.026667c-9.813333 21.333333-15.36 44.8-15.36 69.973333 0 94.293333 76.373333 170.666667 170.666666 170.666667s170.666667-76.373333 170.666667-170.666667-76.373333-170.666667-170.666667-170.666666c-25.173333 0-48.64 5.546667-69.973333 15.36L597.333333 512l258.56-358.058667A16.341333 16.341333 0 0 0 842.666667 128h-23.168a21.333333 21.333333 0 0 0-15.061334 6.229333L368.64 570.026667zM384 725.333333a85.333333 85.333333 0 1 1-170.624 0.042667A85.333333 85.333333 0 0 1 384 725.333333z m426.666667 0a85.333333 85.333333 0 1 1-170.624 0.042667A85.333333 85.333333 0 0 1 810.666667 725.333333z m-277.333334-213.333333c0 11.946667-9.386667 21.333333-21.333333 21.333333s-21.333333-9.386667-21.333333-21.333333 9.386667-21.333333 21.333333-21.333333 21.333333 9.386667 21.333333 21.333333zM426.666667 512l85.333333-85.333333-292.437333-292.437334A21.333333 21.333333 0 0 0 204.501333 128H181.333333a16.341333 16.341333 0 0 0-13.226666 25.941333L426.666667 512z" fill="#000000" fill-opacity=".87" p-id="2963"></path></svg>
