<svg t="1682171442377" class="icon" viewBox="0 0 1024 1024" version="1.1" xmlns="http://www.w3.org/2000/svg" p-id="14122" width="200" height="200"><path d="M430.06 142.1L252.12 320H48c-26.52 0-48 21.48-48 48v288c0 26.5 21.48 48 48 48h204.12l177.94 177.9c30.06 30.06 81.94 8.94 81.94-33.94V176.04c0-42.92-51.92-63.96-81.94-33.94zM923.28 512l91.28-91.28c12.6-12.6 12.6-33.04 0-45.64l-45.64-45.64c-12.6-12.6-33.04-12.6-45.64 0L832 420.72l-91.28-91.28c-12.6-12.6-33.04-12.6-45.64 0l-45.64 45.64c-12.6 12.6-12.6 33.04 0 45.64L740.72 512l-91.26 91.26c-12.6 12.6-12.6 33.04 0 45.64l45.64 45.64c12.6 12.6 33.04 12.6 45.64 0L832 603.28l91.28 91.28c12.6 12.6 33.04 12.6 45.64 0l45.64-45.64c12.6-12.6 12.6-33.04 0-45.64L923.28 512z" p-id="14123"></path></svg>
